<?xml version="1.0" encoding="UTF-8" standalone="no"?>
<!-- Created with Inkscape (http://www.inkscape.org/) -->

<svg
   xmlns:dc="http://purl.org/dc/elements/1.1/"
   xmlns:cc="http://creativecommons.org/ns#"
   xmlns:rdf="http://www.w3.org/1999/02/22-rdf-syntax-ns#"
   xmlns:svg="http://www.w3.org/2000/svg"
   xmlns="http://www.w3.org/2000/svg"
   xmlns:xlink="http://www.w3.org/1999/xlink"
   version="1.2"
   viewBox="0 0 300 63.556412"
   id="svg3888">
  <defs
     id="defs3890">
    <linearGradient
       id="linearGradient5288">
      <stop
         id="stop5290"
         style="stop-color:#336699;stop-opacity:1"
         offset="0" />
    </linearGradient>
    <linearGradient
       id="linearGradient5282">
      <stop
         id="stop5284"
         style="stop-color:#336635;stop-opacity:1"
         offset="0" />
    </linearGradient>
    <linearGradient
       id="linearGradient4424">
      <stop
         id="stop4426"
         style="stop-color:#346699;stop-opacity:1"
         offset="0" />
    </linearGradient>
    <linearGradient
       x1="104.62347"
       y1="342.45233"
       x2="494.86935"
       y2="342.45233"
       id="linearGradient5292"
       xlink:href="#linearGradient5288"
       gradientUnits="userSpaceOnUse" />
    <linearGradient
       x1="104.62347"
       y1="342.45233"
       x2="494.86935"
       y2="342.45233"
       id="linearGradient5307"
       xlink:href="#linearGradient5288"
       gradientUnits="userSpaceOnUse" />
    <linearGradient
       x1="104.62347"
       y1="342.45233"
       x2="494.86935"
       y2="342.45233"
       id="linearGradient5309"
       xlink:href="#linearGradient5288"
       gradientUnits="userSpaceOnUse" />
    <linearGradient
       x1="104.62347"
       y1="342.45233"
       x2="494.86935"
       y2="342.45233"
       id="linearGradient5311"
       xlink:href="#linearGradient5288"
       gradientUnits="userSpaceOnUse" />
    <linearGradient
       x1="104.62347"
       y1="342.45233"
       x2="494.86935"
       y2="342.45233"
       id="linearGradient5313"
       xlink:href="#linearGradient5288"
       gradientUnits="userSpaceOnUse" />
    <linearGradient
       x1="104.62347"
       y1="342.45233"
       x2="494.86935"
       y2="342.45233"
       id="linearGradient5315"
       xlink:href="#linearGradient5288"
       gradientUnits="userSpaceOnUse" />
    <linearGradient
       x1="104.62347"
       y1="342.45233"
       x2="494.86935"
       y2="342.45233"
       id="linearGradient5317"
       xlink:href="#linearGradient5288"
       gradientUnits="userSpaceOnUse" />
    <linearGradient
       x1="104.62347"
       y1="342.45233"
       x2="494.86935"
       y2="342.45233"
       id="linearGradient5319"
       xlink:href="#linearGradient5288"
       gradientUnits="userSpaceOnUse" />
    <linearGradient
       x1="104.62347"
       y1="342.45233"
       x2="494.86935"
       y2="342.45233"
       id="linearGradient5321"
       xlink:href="#linearGradient5288"
       gradientUnits="userSpaceOnUse" />
    <linearGradient
       x1="104.62347"
       y1="342.45233"
       x2="494.86935"
       y2="342.45233"
       id="linearGradient3339"
       xlink:href="#linearGradient5288"
       gradientUnits="userSpaceOnUse" />
    <linearGradient
       x1="104.62347"
       y1="342.45233"
       x2="494.86935"
       y2="342.45233"
       id="linearGradient3341"
       xlink:href="#linearGradient5288"
       gradientUnits="userSpaceOnUse" />
  </defs>
  <metadata
     id="metadata3893">
    <rdf:RDF>
      <cc:Work
         rdf:about="">
        <dc:format>image/svg+xml</dc:format>
        <dc:type
           rdf:resource="http://purl.org/dc/dcmitype/StillImage" />
        <dc:title></dc:title>
      </cc:Work>
    </rdf:RDF>
  </metadata>
  <g
     transform="translate(-125.61252,-326.57133)"
     id="layer1">
    <g
       transform="translate(12.772236,0.79826475)"
       id="g5582">
      <g
         transform="matrix(0.82468692,0,0,0.81159964,18.276896,74.067398)"
         id="g2991">
        <g
           transform="matrix(1,0,0,0.82767815,10.04233,58.262536)"
           id="g3764">
          <g
             id="g3890">
            <g
               id="g4021">
              <g
                 id="g4122">
                <g
                   id="g4304">
                  <g
                     id="g3218">
                    <g
                       id="g3468">
                      <g
                         transform="matrix(0.93216721,0,0,0.94840372,7.0969033,19.928072)"
                         id="g4161"
                         style="fill:url(#linearGradient3341);fill-opacity:1">
                        <g
                           transform="scale(0.87331408,1.1450634)"
                           id="text3898"
                           style="font-size:45.80253983px;font-style:normal;font-weight:normal;line-height:125%;letter-spacing:0px;word-spacing:0px;fill:url(#linearGradient3339);fill-opacity:1;stroke:none;font-family:Sans">
                          <path
                             d="m 119.80051,329.3403 0,-61.55138 19.94332,0 c 7.55744,7e-5 12.48378,0.30796 14.77905,0.92369 3.52677,0.92375 6.47978,2.93908 8.85903,6.04598 2.37915,3.07902 3.56875,7.06768 3.56881,11.96599 -6e-5,3.77877 -0.68583,6.9557 -2.05732,9.53081 -1.37159,2.57516 -3.121,4.60448 -5.24824,6.08796 -2.09934,1.45553 -4.24062,2.42121 -6.42384,2.89703 -2.96705,0.58782 -7.2636,0.88172 -12.88969,0.8817 l -8.10328,0 0,23.21822 -12.42784,0 m 12.42784,-51.13886 0,17.46614 6.80172,0 c 4.89833,4e-5 8.17323,-0.32185 9.82471,-0.96567 1.65141,-0.64375 2.93898,-1.65141 3.8627,-3.02299 0.95165,-1.3715 1.42749,-2.96697 1.42753,-4.7864 -4e-5,-2.2392 -0.65782,-4.08658 -1.97334,-5.54214 -1.3156,-1.45546 -2.98104,-2.36516 -4.99633,-2.72909 -1.48353,-0.27985 -4.46453,-0.4198 -8.943,-0.41985 l -6.00399,0"
                             id="path3058"
                             style="font-size:85.98719025px;font-variant:normal;font-weight:bold;font-stretch:normal;fill:url(#linearGradient5307);fill-opacity:1;font-family:Arial;-inkscape-font-specification:Arial Bold" />
                          <path
                             d="m 206.50146,329.3403 0,-6.67576 c -1.62349,2.37921 -3.76477,4.25458 -6.42384,5.62611 -2.63115,1.37154 -5.41621,2.05731 -8.3552,2.05731 -2.99502,0 -5.68212,-0.65778 -8.0613,-1.97333 -2.37922,-1.31556 -4.10064,-3.16294 -5.16427,-5.54215 -1.06365,-2.37919 -1.59547,-5.66809 -1.59547,-9.86669 l 0,-28.21455 11.79805,0 0,20.48914 c -2e-5,6.26991 0.20991,10.11862 0.62979,11.54613 0.44783,1.39954 1.24556,2.51916 2.3932,3.35887 1.14759,0.81174 2.6031,1.2176 4.36653,1.21759 2.0153,10e-6 3.82069,-0.5458 5.41619,-1.63745 1.59543,-1.11961 2.68706,-2.49115 3.2749,-4.11462 0.58777,-1.65143 0.88167,-5.66808 0.88171,-12.04996 l 0,-18.8097 11.79804,0 0,44.58906 -10.95833,0"
                             id="path3060"
                             style="font-size:85.98719025px;font-variant:normal;font-weight:bold;font-stretch:normal;fill:url(#linearGradient5309);fill-opacity:1;font-family:Arial;-inkscape-font-specification:Arial Bold" />
                          <path
                             d="m 229.21585,329.3403 0,-61.55138 11.79805,0 0,22.16858 c 3.63876,-4.14257 7.94931,-6.21388 12.93167,-6.21392 5.43014,4e-5 9.92263,1.97338 13.47748,5.92002 3.55476,3.91872 5.33217,9.55882 5.33222,16.92033 -5e-5,7.61346 -1.81944,13.47749 -5.45818,17.5921 -3.61083,4.11462 -8.00535,6.17193 -13.18358,6.17193 -2.54717,0 -5.06633,-0.62979 -7.55747,-1.88936 -2.46319,-1.28757 -4.59048,-3.17693 -6.38186,-5.6681 l 0,6.5498 -10.95833,0 m 11.71408,-23.26021 c -2e-5,4.61848 0.72774,8.03333 2.18327,10.24457 2.04329,3.13496 4.75838,4.70244 8.14527,4.70243 2.6031,1e-5 4.81435,-1.10562 6.63378,-3.31689 1.84734,-2.23924 2.77103,-5.75206 2.77107,-10.53847 -4e-5,-5.09427 -0.92373,-8.76103 -2.77107,-11.00032 -1.84742,-2.2672 -4.21262,-3.40082 -7.09563,-3.40086 -2.82707,4e-5 -5.17828,1.10567 -7.05363,3.31689 -1.87539,2.1833 -2.81308,5.51418 -2.81306,9.99265"
                             id="path3062"
                             style="font-size:85.98719025px;font-variant:normal;font-weight:bold;font-stretch:normal;fill:url(#linearGradient5311);fill-opacity:1;font-family:Arial;-inkscape-font-specification:Arial Bold" />
                          <path
                             d="m 413.28217,267.78892 0,22.63042 c 3.80671,-4.45046 8.35518,-6.67572 13.64543,-6.67576 2.71506,4e-5 5.16423,0.50387 7.34754,1.51149 2.18323,1.00771 3.82068,2.29527 4.91235,3.86271 1.11958,1.56751 1.87533,3.30293 2.26724,5.20625 0.41982,1.9034 0.62975,4.85641 0.62979,8.85904 l 0,26.15723 -11.79804,0 0,-23.55411 c -4e-5,-4.6744 -0.22396,-7.64141 -0.67178,-8.90101 -0.44788,-1.25955 -1.24562,-2.25321 -2.3932,-2.98101 -1.11965,-0.75571 -2.53318,-1.13358 -4.24058,-1.13362 -1.95937,4e-5 -3.70878,0.47588 -5.24824,1.42753 -1.5395,0.95171 -2.67312,2.39323 -3.40086,4.32455 -0.69978,1.90339 -1.04967,4.73044 -1.04965,8.48116 l 0,22.33651 -11.79804,0 0,-61.55138 11.79804,0"
                             id="path3064"
                             style="font-size:85.98719025px;font-variant:normal;font-weight:bold;font-stretch:normal;fill:url(#linearGradient5313);fill-opacity:1;font-family:Arial;-inkscape-font-specification:Arial Bold" />
                          <path
                             d="m 479.91387,315.14906 11.75606,1.97334 c -1.51154,4.31056 -3.90473,7.59945 -7.1796,9.86669 -3.24694,2.23925 -7.31957,3.35887 -12.2179,3.35887 -7.75342,0 -13.49149,-2.53315 -17.21424,-7.59945 -2.93902,-4.05863 -4.40852,-9.18091 -4.40852,-15.36685 0,-7.3895 1.93135,-13.16955 5.79406,-17.34019 3.86269,-4.19855 8.74705,-6.29785 14.65309,-6.29789 6.63375,4e-5 11.86799,2.19731 15.70274,6.59179 3.83467,4.36657 5.66806,11.07032 5.50016,20.11126 l -29.5581,0 c 0.084,3.49884 1.03564,6.22793 2.85504,8.18726 1.81937,1.93136 4.08661,2.89704 6.80172,2.89703 1.84736,1e-5 3.40084,-0.50382 4.66044,-1.5115 1.25955,-1.00765 2.21123,-2.6311 2.85505,-4.87036 m 0.67177,-11.92401 c -0.084,-3.41482 -0.96571,-6.00395 -2.64511,-7.7674 -1.67947,-1.79136 -3.72278,-2.68706 -6.12995,-2.6871 -2.57516,4e-5 -4.70244,0.93773 -6.38186,2.81306 -1.67945,1.87541 -2.50518,4.42255 -2.47717,7.64144 l 17.63409,0"
                             id="path3066"
                             style="font-size:85.98719025px;font-variant:normal;font-weight:bold;font-stretch:normal;fill:url(#linearGradient5315);fill-opacity:1;font-family:Arial;-inkscape-font-specification:Arial Bold" />
                          <path
                             d="m 501.07477,284.75124 10.87435,0 0,6.08796 c 3.89068,-4.73037 8.52312,-7.09558 13.89735,-7.09562 2.85501,4e-5 5.33217,0.58785 7.43151,1.76341 2.09925,1.17565 3.82067,2.95305 5.16427,5.33221 1.95929,-2.37916 4.07258,-4.15656 6.33987,-5.33221 2.26719,-1.17556 4.68838,-1.76337 7.26357,-1.76341 3.27484,4e-5 6.04591,0.67182 8.31321,2.01532 2.26718,1.3156 3.96061,3.26095 5.0803,5.83605 0.81166,1.9034 1.21752,4.98236 1.21759,9.2369 l 0,28.50845 -11.79804,0 0,-25.48546 c -6e-5,-4.42249 -0.40593,-7.27753 -1.2176,-8.56513 -1.09169,-1.6794 -2.77112,-2.51912 -5.03831,-2.51916 -1.6515,4e-5 -3.20497,0.50387 -4.66044,1.5115 -1.45556,1.00769 -2.5052,2.4912 -3.14894,4.45051 -0.64383,1.93138 -0.96572,4.99635 -0.96568,9.19492 l 0,21.41282 -11.79805,0 0,-24.43581 c -3e-5,-4.33852 -0.20996,-7.13758 -0.62978,-8.39719 -0.41989,-1.25954 -1.07767,-2.19723 -1.97334,-2.81306 -0.86774,-0.61575 -2.05734,-0.92365 -3.56881,-0.92369 -1.81941,4e-5 -3.45686,0.48988 -4.91235,1.46951 -1.45553,0.97971 -2.50518,2.39323 -3.14895,4.24058 -0.61581,1.84741 -0.9237,4.91238 -0.92369,9.19492 l 0,21.66474 -11.79804,0 0,-44.58906"
                             id="path3068"
                             style="font-size:85.98719025px;font-variant:normal;font-weight:bold;font-stretch:normal;fill:url(#linearGradient5317);fill-opacity:1;font-family:Arial;-inkscape-font-specification:Arial Bold" />
                        </g>
                      </g>
                      <path
                         d="m 281.01784,307.94885 39.14535,21.83443 0,43.66887 -39.14535,21.83443 -39.14535,-21.83443 0,-43.66887 z"
                         id="path4442"
                         style="fill:none;stroke:#336699;stroke-width:7.26686716;stroke-linecap:round;stroke-linejoin:round;stroke-miterlimit:4;stroke-opacity:1;stroke-dasharray:none" />
                      <path
                         d="m 300.37743,368.42931 a 25.261095,26.569752 0 1 1 -0.0407,-33.28541"
                         id="path4537"
                         style="fill:none;stroke:#336699;stroke-width:5.38403463;stroke-linecap:round;stroke-linejoin:round;stroke-miterlimit:4;stroke-opacity:1;stroke-dasharray:none;marker-start:none;marker-end:none" />
                      <path
                         d="m 308.6966,353.10972 2.09775,-4.92518 4.19552,10e-6 2.09777,4.92517 -2.09777,4.92519 -4.19552,0 z"
                         id="path2992"
                         style="fill:#fffc00;fill-opacity:0;stroke-width:16;stroke-miterlimit:4;stroke-dasharray:none" />
                    </g>
                  </g>
                </g>
              </g>
              <flowRoot
                 transform="matrix(1.2125814,0,0,1.4886639,104.25289,296.99658)"
                 id="flowRoot4114"
                 xml:space="preserve"
                 style="font-size:40px;font-style:normal;font-weight:normal;line-height:125%;letter-spacing:0px;word-spacing:0px;fill:#000000;fill-opacity:1;stroke:none;font-family:Sans"><flowRegion
                   id="flowRegion4116"><rect
                     width="329.88351"
                     height="125.73619"
                     x="-14.383107"
                     y="-20.106258"
                     id="rect4118" /></flowRegion><flowPara
                   id="flowPara4120" /></flowRoot>            </g>
          </g>
        </g>
      </g>
    </g>
  </g>
</svg>
